<svg width="48" height="33" viewBox="0 0 48 33" fill="none" xmlns="http://www.w3.org/2000/svg">
<path d="M39.1236 10.2065C38.9032 9.68871 38.5035 9.24154 37.9783 8.92524C37.4532 8.60893 36.8279 8.4387 36.1868 8.4375H32.3549L30.7924 0.375H20.593L22.1555 8.4375H18.2924L16.7299 0.375H6.53047L8.09297 8.4375H3.6875V15.8281H0.5625V32.625H42.3327L47.4375 18.7227V15.8281H41.5007L39.1236 10.2065ZM28.1451 3.0625L29.1868 8.4375H25.3236L24.282 3.0625H28.1451ZM14.0826 3.0625L15.1243 8.4375H11.2611L10.2195 3.0625H14.0826ZM6.8125 11.125H36.1868L38.1754 15.8281H6.8125V11.125ZM44.2365 18.5156L40.0423 29.9375H3.6875V18.5156H44.2365Z" fill="white"/>
</svg>
