<svg xmlns="http://www.w3.org/2000/svg" width="18" height="15" viewBox="0 0 18 15">
    <g fill="none" fill-rule="evenodd" opacity=".8">
        <g fill="#22272A" fill-rule="nonzero">
            <g>
                <path d="M7.342 13.859c-.023-.063-.031-.116-.023-.159.007-.042-.02-.078-.08-.105-.062-.027-.093-.049-.093-.064 0-.016-.043-.027-.132-.035l-.131-.012H3.304c-.505 0-.937-.183-1.297-.55-.36-.367-.539-.807-.539-1.322V3.374c0-.514.18-.955.54-1.322.359-.366.79-.55 1.296-.55h3.67c.1 0 .178-.025.236-.076.057-.05.095-.127.114-.228.02-.101.03-.193.035-.275.003-.082.002-.185-.006-.31S7.34.41 7.34.38c0-.101-.036-.189-.108-.263-.073-.074-.16-.111-.259-.111h-3.67c-.91 0-1.688.33-2.335.988C.323 1.653 0 2.446 0 3.375v8.237c0 .928.323 1.722.97 2.38.645.66 1.424.99 2.334.99h3.67c.1 0 .178-.026.236-.076.057-.05.095-.127.114-.228.02-.102.031-.194.035-.275.004-.082.002-.185-.006-.31s-.011-.203-.011-.234z" transform="translate(-1409 -17) translate(1409 17)"/>
                <path d="M17.769 6.967L11.529.6C11.383.453 11.21.38 11.012.38c-.198 0-.37.074-.516.222-.145.148-.218.324-.218.527v3.37H5.14c-.199 0-.37.074-.516.222-.146.148-.218.324-.218.527V9.74c0 .203.072.378.218.527.145.147.317.222.516.222h5.14v3.37c0 .202.072.378.217.526.145.149.318.223.517.223.198 0 .37-.074.516-.223l6.24-6.365c.145-.148.218-.324.218-.526 0-.203-.073-.379-.218-.527z" transform="translate(-1409 -17) translate(1409 17)"/>
            </g>
        </g>
    </g>
</svg>
